<svg width="429" height="123" viewBox="0 0 429 123" fill="none" xmlns="http://www.w3.org/2000/svg">
<path d="M200.22 3.25392C169.66 2.41449 139.202 3.47295 109.304 9.1903C83.6268 14.1004 55.6146 15.6004 31.3577 24.5846C12.3873 31.6109 -6.23625 49.9091 8.05805 67.3467C15.5085 76.4355 28.2237 83.0788 39.5246 88.0737C74.1251 103.367 112.759 109.196 151.279 112.675C189.613 116.136 228.367 117.498 266.877 118.762C299.886 119.845 333.364 121.071 366.321 118.359C388.722 116.516 436.385 109.159 423.969 80.5275C413.195 55.6804 369.579 45.5035 342.781 39.4759C318.276 33.9642 293.563 31.6095 268.318 32.2315" stroke="#1F7A8C" stroke-width="5" stroke-linecap="round"/>
</svg>
