<svg width="1601" height="344" viewBox="0 0 1601 344" fill="none" xmlns="http://www.w3.org/2000/svg">
<path d="M1590.88 30.7738C1612.26 55.0477 1590.88 194.001 1590.88 343.502L0.483682 331.001L0.483627 30.7738C0.483588 4.39097 45.5024 0.390969 45.5024 0.390969C102.002 0.390963 120.902 24.721 155.392 24.247C186.018 23.8262 205.298 11.8068 246.949 11.9961C288.6 12.1855 319.932 26.1764 361.39 25.1836C394.908 24.381 416.421 12.7377 449.947 12.9191C483.279 13.0995 511.081 24.6566 544.388 26.0157C588.346 27.8094 595.937 13.5829 639.946 13.783C658.779 13.8686 695.317 26.3302 731.387 26.8659C770.36 27.4448 776.77 14.4051 830.444 14.6492C849.793 14.7371 883.282 26.2566 902.561 27.6442C928.507 29.5117 942.114 15.0815 968.121 15.2751C993.743 15.4659 1006.97 27.0744 1032.57 28.2353C1064.9 29.7018 1084.94 15.8063 1114.62 15.9413C1137.42 16.0449 1161.13 27.7957 1183.88 28.9233C1206.64 30.051 1239.75 16.5102 1265.44 16.627C1310.81 16.8333 1337.53 29.3788 1382.88 29.8281C1430.56 30.3005 1479.84 2.04324 1527.5 0.390979C1556.38 -0.610451 1569.5 6.5 1590.88 30.7738Z" fill="#2A2A2A"/>
</svg>
